<svg width="82" height="31" viewBox="0 0 82 31" fill="none" xmlns="http://www.w3.org/2000/svg">
<path d="M62.5195 15.9092V27.3906L59.2842 31H56.207L56 28.2012L56.207 27.9941L58.2002 25.7129V17.2139L62.4238 15.0352L62.5195 15.9092ZM72.9453 6.01855C73.7743 5.97085 74.4919 6.01885 75.0498 6.11426L75.8066 6.27344C75.8068 6.32872 75.8626 6.3291 75.9023 6.3291C75.958 6.38453 76.0138 6.38477 76.0615 6.38477C76.1651 6.38477 76.2773 6.44824 76.2773 6.44824C76.5801 6.52776 76.9386 6.68675 77.2334 6.8457C78.2696 7.3466 79.1469 8.01424 79.8643 8.93652C80.5815 9.85874 81.0914 10.9163 81.458 12.085L81.4814 12.0537C81.7923 13.2304 82 14.5027 82 15.8701C82 17.2454 81.8409 18.5179 81.4902 19.6865C81.1236 20.8552 80.6128 21.9285 79.8955 22.7871C79.1702 23.6536 78.3015 24.3613 77.2256 24.8701C76.5083 25.1802 75.735 25.4347 74.9141 25.5381C74.8973 25.5407 73.3656 25.7825 71.582 25.4346C70.9685 25.3233 70.4027 25.1801 69.8848 24.9258C69.837 24.9258 69.8369 24.8703 69.7734 24.8701C69.7734 24.8245 69.7294 24.8224 69.7256 24.8223H69.6855C69.3667 24.6712 69.1115 24.5202 68.8086 24.3135C68.1312 23.8524 67.5737 23.3513 67.0557 22.7393C66.3942 21.8647 65.8276 20.8073 65.4609 19.6387C65.1023 18.47 64.9434 17.1976 64.9434 15.8223C64.9434 14.5024 65.1024 13.1823 65.4531 12.0215C65.8197 10.7972 66.3296 9.78744 67.0469 8.86523C67.7642 8.00655 68.6416 7.29108 69.6777 6.78223C70.6341 6.33703 71.7179 6.07422 72.9453 6.01855ZM73.3916 9C72.7302 9.00004 72.1166 9.19899 71.5986 9.55664C71.0886 9.90642 70.6262 10.4154 70.2676 11.0195C69.9089 11.6317 69.6535 12.4032 69.4463 13.1982L69.4541 13.2061C69.2947 14.0169 69.1915 14.9234 69.1357 15.7979C69.1357 16.7121 69.1914 17.6266 69.3906 18.4375C69.5979 19.2564 69.8531 19.9641 70.2197 20.5684C70.5784 21.1885 71.0405 21.6422 71.5586 22C72.0766 22.3497 72.6822 22.5087 73.3516 22.5088C74.0291 22.5088 74.6354 22.3578 75.1455 22C75.6635 21.6423 76.1257 21.189 76.4844 20.585C76.8431 19.9648 77.0984 19.2564 77.3057 18.4375C77.4571 17.6266 77.5605 16.7121 77.5605 15.7979V15.4961C77.5605 14.5819 77.4564 13.763 77.2412 12.9521C77.042 12.1414 76.7794 11.4812 76.4209 10.8691C76.0622 10.2967 75.6556 9.8508 75.1455 9.50098C74.6274 9.14319 74.0611 9 73.3916 9Z" fill="white"/>
<path d="M43.3115 25H38.9629V5.53613H43.3115V25ZM53.8604 5.45801C54.6978 5.41084 55.4227 5.45739 55.9863 5.55176L56.751 5.70898C56.751 5.764 56.8074 5.76465 56.8477 5.76465C56.912 5.81963 56.9605 5.81934 57.0088 5.81934C57.1135 5.81934 57.2266 5.88281 57.2266 5.88281C57.5324 5.96147 57.8946 6.11822 58.1924 6.27539C59.2392 6.77079 60.1249 7.43162 60.8496 8.34375C61.5744 9.25599 62.0905 10.302 62.4609 11.458L62.4766 11.4268C62.8389 12.5906 63 13.8487 63 15.2012C63 16.5617 62.8387 17.8205 62.4844 18.9766C62.114 20.1324 61.5986 21.1938 60.874 22.043C60.1493 22.9001 59.2638 23.6002 58.1768 24.1035C57.452 24.4102 56.6702 24.6614 55.8408 24.7637C55.8182 24.7672 54.2739 25.0054 52.4756 24.6621C51.8555 24.552 51.283 24.4099 50.7676 24.1582C50.7116 24.158 50.7113 24.1035 50.6631 24.1035C50.6631 24.0563 50.6064 24.0566 50.6064 24.0566H50.5664C50.2443 23.9072 49.9867 23.7572 49.6807 23.5527C49.0044 23.0967 48.4325 22.6015 47.9092 21.9961C47.2408 21.131 46.6693 20.0847 46.2988 18.9287C45.9446 17.7728 45.7832 16.5147 45.7832 15.1543C45.7832 13.849 45.9368 12.5436 46.291 11.3955C46.6614 10.1845 47.1767 9.18563 47.9014 8.27344C48.6261 7.42413 49.5118 6.71619 50.5586 6.21289C51.5249 5.7725 52.6202 5.51306 53.8604 5.45801ZM54.3672 8.40625C53.6829 8.40631 53.0709 8.60325 52.5557 8.95703C52.0323 9.30303 51.5655 9.80667 51.2031 10.4043C50.8408 11.0097 50.5831 11.7723 50.3818 12.5586L50.3896 12.5664C50.1803 13.3685 50.1238 14.2658 50.0674 15.1309C50.0674 16.0351 50.1159 16.9392 50.3252 17.7412C50.5345 18.5511 50.792 19.251 51.1543 19.8486C51.5166 20.462 51.9837 20.9108 52.499 21.2646C53.0224 21.6107 53.6427 21.7676 54.3271 21.7676C54.9954 21.7676 55.6234 21.6184 56.1387 21.2646C56.654 20.9108 57.1213 20.4619 57.4756 19.8643C57.8379 19.2509 58.1044 18.5511 58.3057 17.7412C58.4667 16.9392 58.5791 16.035 58.5791 15.1309V14.832C58.5791 13.9277 58.4662 13.1175 58.2568 12.3154C58.0475 11.5134 57.7901 10.8604 57.4277 10.2549C57.0654 9.68867 56.646 9.24836 56.1387 8.90234C55.6153 8.54856 55.0435 8.40625 54.3672 8.40625ZM33.3096 0.046875L36.6436 3.61719V15.2324L36.5469 15.8779L32.2793 13.6758V5.22168L30.2656 3.00391L30 2.81543L30.209 0L33.3096 0.046875Z" fill="white"/>
<path d="M8.00488 6.22852C8.83411 6.1804 9.55222 6.22799 10.1104 6.32422L10.8672 6.48535C10.8674 6.54093 10.9231 6.54102 10.9629 6.54102C11.0267 6.59715 11.0752 6.59766 11.123 6.59766C11.224 6.59777 11.3324 6.65801 11.3379 6.66113C11.6409 6.74132 11.9999 6.90212 12.2949 7.0625C13.3312 7.56762 14.2083 8.24094 14.9258 9.1709C15.6433 10.101 16.1537 11.168 16.5205 12.3467L16.5371 12.3145C16.8959 13.5013 17.0547 14.7848 17.0547 16.1641C17.0547 17.5511 16.8957 18.8341 16.5449 20.0127C16.1782 21.1915 15.6678 22.2746 14.9502 23.1406C14.2327 24.0146 13.3555 24.728 12.2793 25.2412C11.5617 25.5539 10.788 25.8108 9.9668 25.915C9.9668 25.915 8.42778 26.1634 6.63379 25.8105C6.01993 25.6983 5.45375 25.5544 4.93555 25.2979C4.88771 25.2979 4.88768 25.2973 4.83984 25.2412C4.83973 25.1949 4.78783 25.1934 4.78418 25.1934H4.74414C4.42521 25.041 4.17017 24.8882 3.86719 24.6797C3.19746 24.2146 2.63153 23.7092 2.11328 23.0918C1.39574 22.2097 0.88531 21.1917 0.518555 19.9648C0.159795 18.7862 3.40169e-05 17.5033 0 16.1162C0 14.7851 0.159917 13.453 0.510742 12.2822C0.877436 11.0478 1.38721 10.0295 2.10449 9.09961C2.82209 8.23356 3.6998 7.51126 4.73633 6.99805C5.69299 6.54908 6.77721 6.28468 8.00488 6.22852ZM27.4678 6.22852C28.289 6.1804 29.0073 6.22799 29.5654 6.32422L30.3301 6.48535C30.3303 6.54099 30.3782 6.54102 30.4258 6.54102C30.4816 6.59715 30.5381 6.59766 30.5859 6.59766C30.6872 6.5978 30.796 6.65839 30.8008 6.66113C31.1038 6.74132 31.4628 6.90212 31.7578 7.0625C32.7941 7.56762 33.6712 8.24094 34.3887 9.1709C35.1062 10.1011 35.6166 11.168 35.9834 12.3467L36.0078 12.3145C36.3188 13.5013 36.5176 14.7848 36.5176 16.1641C36.5176 17.5511 36.3664 18.834 36.0156 20.0127C35.6489 21.1915 35.1385 22.2746 34.4209 23.1406C33.6954 24.0146 32.8262 24.728 31.75 25.2412C31.0324 25.5539 30.2587 25.8108 29.4375 25.915C29.4375 25.915 27.8985 26.1634 26.1045 25.8105C25.4827 25.6983 24.9244 25.5544 24.4062 25.2979C24.3585 25.2978 24.3584 25.2414 24.2949 25.2412C24.2948 25.1954 24.2509 25.1934 24.2471 25.1934C24.2471 25.1934 23.6331 24.8882 23.3301 24.6797C22.6524 24.2146 22.0944 23.7093 21.5762 23.0918C20.9065 22.2097 20.3482 21.1436 19.9814 19.9648C19.6227 18.7862 19.4629 17.5033 19.4629 16.1162C19.4629 14.7851 19.6218 13.453 19.9727 12.2822C20.3394 11.0477 20.85 10.0296 21.5674 9.09961C22.285 8.23356 23.1627 7.51126 24.1992 6.99805C25.1559 6.54909 26.2401 6.28467 27.4678 6.22852ZM8.50781 9.23535C7.83017 9.23535 7.22412 9.43611 6.71387 9.79688C6.1956 10.1497 5.73282 10.663 5.37402 11.2725C5.01526 11.8899 4.75987 12.6679 4.56055 13.4697L4.54492 13.4775C4.3456 14.2954 4.29005 15.2175 4.29004 16.1396C4.29004 17.0538 4.34543 17.9924 4.55273 18.8184C4.768 19.6843 5.00726 20.3982 5.32617 20.9033C5.6849 21.5286 6.14708 21.9859 6.65723 22.3467C7.17549 22.6995 7.79004 22.8594 8.46777 22.8594C9.1295 22.8594 9.75147 22.7075 10.2617 22.3467C10.772 21.9858 11.2341 21.5284 11.585 20.9189C11.9437 20.2935 12.2069 19.5798 12.4062 18.7539C12.5657 17.936 12.6611 17.0139 12.6611 16.0918L12.6777 15.7871C12.6777 14.8649 12.5657 14.0386 12.3584 13.2207C12.1511 12.4029 11.8959 11.7375 11.5371 11.1201C11.1783 10.5428 10.764 10.0931 10.2617 9.74023C9.74357 9.37951 9.17737 9.2354 8.50781 9.23535ZM27.9141 9.23535C27.2525 9.23544 26.6383 9.4361 26.1201 9.79688C25.6099 10.1497 25.1478 10.6631 24.7891 11.2725C24.4303 11.8899 24.1751 12.6679 23.9678 13.4697L23.9756 13.4775C23.8161 14.2955 23.713 15.2097 23.6572 16.0918C23.6572 17.0139 23.7128 17.936 23.9121 18.7539C24.1194 19.5799 24.3744 20.2939 24.7412 20.9033C25.1 21.5287 25.5628 21.9859 26.0811 22.3467C26.5992 22.6993 27.2054 22.8594 27.875 22.8594C28.5526 22.8593 29.1587 22.7075 29.6689 22.3467C30.1872 21.9858 30.649 21.5283 31.0078 20.9189C31.3666 20.2935 31.6218 19.5799 31.8291 18.7539C31.9806 17.936 32.085 17.0139 32.085 16.0918V15.7871C32.085 14.8649 31.9809 14.0386 31.7656 13.2207C31.5583 12.4029 31.3031 11.7375 30.9443 11.1201C30.5855 10.5428 30.1792 10.0931 29.6689 9.74023C29.1507 9.37938 28.5838 9.23535 27.9141 9.23535ZM41.0068 1C42.1071 1.00009 43 1.89832 43 3.00488C42.9999 4.11138 42.107 5.00968 41.0068 5.00977C39.9066 5.05788 39.0137 4.16757 39.0137 3.00488C39.0137 1.89826 39.9065 1 41.0068 1Z" fill="white"/>
</svg>
