<svg width="170" height="64" viewBox="0 0 170 64" fill="none" xmlns="http://www.w3.org/2000/svg">
<path d="M129.541 32.6113V56.4922L122.82 64H116.431L116 58.1787L116.431 57.749L120.569 53.0029V35.3242L129.343 30.793L129.541 32.6113ZM151.194 12.0391C152.916 11.9398 154.406 12.0389 155.564 12.2373L157.138 12.5684C157.138 12.6839 157.253 12.6836 157.336 12.6836C157.452 12.7993 157.568 12.7998 157.667 12.7998C157.882 12.7998 158.114 12.9316 158.114 12.9316C158.743 13.097 159.488 13.4281 160.101 13.7588C162.253 14.8007 164.074 16.19 165.563 18.1084C167.053 20.0267 168.113 22.2263 168.874 24.6572L168.924 24.5908C169.569 27.0384 170 29.6848 170 32.5293C170 35.3901 169.669 38.0359 168.94 40.4668C168.179 42.8978 167.12 45.1309 165.63 46.917C164.123 48.7196 162.319 50.1916 160.084 51.25C158.594 51.8949 156.988 52.4237 155.283 52.6387C155.268 52.6411 152.079 53.1497 148.363 52.4238C147.089 52.1923 145.914 51.8943 144.838 51.3652C144.739 51.3652 144.738 51.25 144.605 51.25C144.605 51.1545 144.514 51.1505 144.507 51.1504H144.424C143.762 50.8362 143.232 50.5218 142.603 50.0918C141.196 49.1327 140.037 48.0907 138.961 46.8174C137.587 44.9984 136.412 42.799 135.65 40.3682C134.905 37.9371 134.574 35.2907 134.574 32.4297C134.574 29.6845 134.905 26.9389 135.634 24.5244C136.395 21.9778 137.455 19.8772 138.944 17.959C140.434 16.1731 142.255 14.6853 144.407 13.627C146.394 12.7009 148.645 12.1548 151.194 12.0391ZM152.121 18.2402C150.747 18.2403 149.472 18.6543 148.396 19.3984C147.337 20.1261 146.377 21.1847 145.632 22.4414C144.887 23.7147 144.357 25.3191 143.927 26.9727L143.943 26.9893C143.612 28.6759 143.397 30.561 143.281 32.3799C143.281 34.2817 143.398 36.1843 143.812 37.8711C144.242 39.5742 144.772 41.046 145.533 42.3027C146.278 43.5924 147.238 44.5352 148.313 45.2793C149.39 46.007 150.649 46.3379 152.039 46.3379C153.446 46.3378 154.704 46.0234 155.764 45.2793C156.84 44.5351 157.8 43.5927 158.545 42.3359C159.29 41.0461 159.82 39.5743 160.25 37.8711C160.565 36.1843 160.779 34.2817 160.779 32.3799V31.752C160.779 29.8502 160.564 28.1467 160.117 26.46C159.703 24.7732 159.157 23.4003 158.412 22.127C157.667 20.9363 156.823 20.0099 155.764 19.2822C154.688 18.538 153.512 18.2402 152.121 18.2402Z" fill="white"/>
<path d="M89.4287 52H80.4688V11.5156H89.4287V52ZM111.166 11.3516C112.892 11.2534 114.385 11.3516 115.547 11.5479L117.123 11.875C117.123 11.9893 117.239 11.9902 117.322 11.9902C117.455 12.1047 117.555 12.1045 117.654 12.1045C117.87 12.1045 118.103 12.2354 118.103 12.2354C118.733 12.3989 119.48 12.7256 120.094 13.0527C122.251 14.0832 124.076 15.458 125.569 17.3555C127.063 19.2529 128.125 21.4285 128.889 23.833L128.922 23.7676C129.668 26.1883 130 28.8059 130 31.6191C130 34.4488 129.669 37.0663 128.938 39.4707C128.175 41.8751 127.112 44.0831 125.619 45.8496C124.126 47.6325 122.301 49.0889 120.061 50.1357C118.567 50.7737 116.957 51.2971 115.248 51.5098C115.205 51.5164 112.021 52.0117 108.312 51.2969C107.035 51.0679 105.857 50.7733 104.795 50.25C104.679 50.25 104.678 50.136 104.579 50.1357C104.579 50.0401 104.469 50.0372 104.463 50.0371H104.38C103.716 49.7263 103.185 49.4155 102.555 48.9902C101.161 48.0416 99.9828 47.0112 98.9043 45.752C97.527 43.9526 96.3483 41.7766 95.585 39.3721C94.8549 36.9676 94.5234 34.3503 94.5234 31.5205C94.5234 28.8054 94.8383 26.0902 95.5684 23.7021C96.3317 21.1831 97.3943 19.1055 98.8877 17.208C100.381 15.4415 102.206 13.9687 104.363 12.9219C106.354 12.006 108.611 11.4661 111.166 11.3516ZM112.212 17.4863C110.802 17.4863 109.54 17.8949 108.479 18.6309C107.4 19.3506 106.437 20.3975 105.69 21.6406C104.944 22.9001 104.413 24.4873 103.998 26.123L104.015 26.1387C103.583 27.8071 103.467 29.6724 103.351 31.4717C103.351 33.3527 103.45 35.2339 103.882 36.9023C104.313 38.5871 104.844 40.043 105.591 41.2861C106.338 42.562 107.3 43.4944 108.362 44.2305C109.441 44.9501 110.719 45.2773 112.129 45.2773C113.506 45.2773 114.8 44.9665 115.862 44.2305C116.924 43.4944 117.887 42.5615 118.617 41.3184C119.364 40.0426 119.911 38.5869 120.326 36.9023C120.658 35.2339 120.891 33.3527 120.891 31.4717V30.8496C120.891 28.9687 120.658 27.2836 120.227 25.6152C119.795 23.947 119.264 22.5895 118.518 21.3301C117.771 20.1523 116.908 19.2363 115.862 18.5166C114.784 17.7805 113.606 17.4863 112.212 17.4863ZM68.8203 0.0976562L75.6895 7.52441V31.6846L75.4902 33.0254L66.6963 28.4453V10.8613L62.5479 6.24805L62 5.85547L62.4316 0L68.8203 0.0976562Z" fill="white"/>
<path d="M16.5693 12.875C18.2854 12.775 19.7707 12.8751 20.9258 13.0752L22.4932 13.4092C22.4934 13.5255 22.609 13.5254 22.6914 13.5254C22.8234 13.6421 22.9225 13.6426 23.0215 13.6426C23.2312 13.6426 23.4567 13.7696 23.4668 13.7754C24.0938 13.9422 24.8367 14.2758 25.4473 14.6094C27.5926 15.6602 29.4083 17.0613 30.8936 18.9961C32.3788 20.9309 33.4352 23.1497 34.1943 25.6016L34.2266 25.5352C34.9691 28.0036 35.2998 30.6723 35.2998 33.541C35.2998 36.4265 34.9693 39.095 34.2432 41.5469C33.4841 43.9986 32.4285 46.2504 30.9434 48.0518C29.4581 49.8698 27.642 51.3544 25.4141 52.4219C23.929 53.0723 22.3285 53.6064 20.6289 53.8232C20.6289 53.8232 17.4436 54.3403 13.7305 53.6064C12.4597 53.3729 11.2875 53.0728 10.2148 52.5391C10.1163 52.5391 10.1164 52.5384 10.0176 52.4219C10.0175 52.322 9.90137 52.3223 9.90137 52.3223H9.81934C9.15929 52.0054 8.63093 51.6885 8.00391 51.2549C6.61767 50.2875 5.44573 49.2365 4.37305 47.9521C2.88782 46.1175 1.83139 43.9991 1.07227 41.4473C0.329636 38.9954 0 36.326 0 33.4404C2.9102e-05 30.6718 0.330546 27.9029 1.05664 25.4678C1.81571 22.8995 2.87142 20.7813 4.35645 18.8467C5.84168 17.0453 7.65741 15.544 9.80273 14.4766C11.7831 13.5425 14.0279 12.9918 16.5693 12.875ZM56.8525 12.875C58.5522 12.7749 60.0373 12.8751 61.1924 13.0752L62.7773 13.4092C62.7776 13.5254 62.8758 13.5254 62.9746 13.5254C63.09 13.642 63.2057 13.6426 63.3047 13.6426C63.5192 13.6426 63.751 13.7754 63.751 13.7754C64.3779 13.9422 65.12 14.2759 65.7305 14.6094C67.8757 15.6601 69.6915 17.0614 71.1768 18.9961C72.662 20.9309 73.7184 23.1497 74.4775 25.6016L74.5273 25.5352C75.1709 28.0036 75.583 30.6723 75.583 33.541C75.583 36.4264 75.27 39.0951 74.5439 41.5469C73.7849 43.9986 72.7283 46.2504 71.2432 48.0518C69.7415 49.8697 67.9426 51.3544 65.7148 52.4219C64.2296 53.0724 62.6285 53.6064 60.9287 53.8232C60.9287 53.8232 57.7434 54.3403 54.0303 53.6064C52.7432 53.373 51.5882 53.0727 50.5156 52.5391C50.4166 52.5391 50.4162 52.4219 50.2842 52.4219C50.2841 52.3252 50.1916 52.3224 50.1855 52.3223C50.1855 52.3223 48.9142 51.6885 48.2871 51.2549C46.8845 50.2876 45.7298 49.2363 44.6572 47.9521C43.2711 46.1175 42.1156 43.899 41.3564 41.4473C40.6138 38.9954 40.2832 36.326 40.2832 33.4404C40.2832 30.6718 40.6138 27.9029 41.3398 25.4678C42.099 22.8993 43.1555 20.7814 44.6406 18.8467C46.1258 17.0454 47.9407 15.544 50.0859 14.4766C52.0663 13.5425 54.3111 12.9918 56.8525 12.875ZM17.6084 19.1299C16.2057 19.1299 14.9516 19.5473 13.8955 20.2979C12.8229 21.0317 11.8656 22.0987 11.123 23.3662C10.3804 24.6505 9.85203 26.2686 9.43945 27.9365L9.40625 27.9531C8.99368 29.6544 8.87891 31.5731 8.87891 33.4912C8.87892 35.3924 8.99387 37.3437 9.42285 39.0615C9.8684 40.8628 10.3634 42.3476 11.0234 43.3984C11.7661 44.6994 12.7241 45.6498 13.7803 46.4004C14.8529 47.1342 16.1237 47.4678 17.5264 47.4678C18.896 47.4677 20.1832 47.1509 21.2393 46.4004C22.2954 45.6498 23.2524 44.6992 23.9785 43.4316C24.7211 42.1307 25.2662 40.6465 25.6787 38.9287C26.0088 37.2274 26.207 35.3088 26.207 33.3906L26.2393 32.7568C26.2393 30.8389 26.0081 29.1211 25.5791 27.4199C25.1501 25.7188 24.6224 24.334 23.8799 23.0498C23.1373 21.8489 22.2789 20.9146 21.2393 20.1807C20.1666 19.4301 18.9946 19.1299 17.6084 19.1299ZM57.7764 19.1299C56.4067 19.1299 55.1361 19.5473 54.0635 20.2979C53.0074 21.0317 52.0502 22.0987 51.3076 23.3662C50.565 24.6505 50.0365 26.2686 49.6074 27.9365L49.624 27.9531C49.294 29.6544 49.0794 31.5559 48.9639 33.3906C48.9639 35.3088 49.0796 37.2274 49.4922 38.9287C49.9212 40.6465 50.449 42.1309 51.208 43.3984C51.9505 44.6993 52.908 45.6499 53.9805 46.4004C55.0532 47.1343 56.3081 47.4678 57.6943 47.4678C59.097 47.4677 60.3511 47.1509 61.4072 46.4004C62.4798 45.6498 63.4371 44.6992 64.1797 43.4316C64.9222 42.1307 65.4508 40.6465 65.8799 38.9287C66.1934 37.2274 66.4072 35.3088 66.4072 33.3906V32.7568C66.4072 30.8388 66.1926 29.1211 65.7471 27.4199C65.318 25.7188 64.7904 24.334 64.0479 23.0498C63.3052 21.8489 62.4634 20.9146 61.4072 20.1807C60.3345 19.4301 59.1626 19.1299 57.7764 19.1299ZM84.874 2C87.1514 2 89 3.86816 89 6.16992C89 8.47166 87.1514 10.3398 84.874 10.3398C82.5968 10.4398 80.7491 8.58832 80.749 6.16992C80.749 3.86824 82.5967 2.00014 84.874 2Z" fill="white"/>
</svg>
